# xmcd
#
# Track frame offsets: 
#        150
#        4716
#        14615
#        23581
#        31525
#        48919
#        60410
#        74612
#        88680
#        98263
#        107826
#        120232
#        137142
#        150366
#        158323
#        165448
#        170085
#        186212
#        195659
#        206934
#        218460
#        231722
#        242004
#        252014
#        263993
#        273924
#        280737
#        294546
#
# Disc length: 4122 seconds
#
# Revision: 0
# Processed by: cddbd v1.5.2PL0 Copyright (c) Steve Scherf et al.
# Submitted via: ExactAudioCopy v0.99pb3
#
DISCID=7210181c
DTITLE=B.M.O.C. and DJ Shan - Sparkplug
DYEAR=2007
DGENRE=Hip-Hop
TTITLE0=The Burning
TTITLE1=Holed Thru
TTITLE2=No Cell Therapy
TTITLE3=Woo Woo Song
TTITLE4=Tonight/Yo
TTITLE5=Funk Fantasy Hard
TTITLE6=Moonlight
TTITLE7=Hold Me Back
TTITLE8=On 80
TTITLE9=F.J.T.P.
TTITLE10=That It's Hip-Hop
TTITLE11=Sparkplug
TTITLE12=Lies
TTITLE13=Stroke
TTITLE14=Whisper the Truth
TTITLE15=Countdown
TTITLE16=V-Day
TTITLE17=Foot-Imprinted
TTITLE18=Bloody Water
TTITLE19=Blackman
TTITLE20=Puniche-mnt
TTITLE21=Sold Souls
TTITLE22=Often Wondur
TTITLE23=Seasons
TTITLE24=In Yur Sidehead Tunnels
TTITLE25=Oh Shit
TTITLE26=Coming Back
TTITLE27=The War Foundation
EXTD=
EXTT0=
EXTT1=
EXTT2=
EXTT3=
EXTT4=
EXTT5=
EXTT6=
EXTT7=
EXTT8=
EXTT9=
EXTT10=
EXTT11=
EXTT12=
EXTT13=
EXTT14=
EXTT15=
EXTT16=
EXTT17=
EXTT18=
EXTT19=
EXTT20=
EXTT21=
EXTT22=
EXTT23=
EXTT24=
EXTT25=
EXTT26=
EXTT27=
PLAYORDER=
